<?xml version="1.0" encoding="UTF-8"?>
<!DOCTYPE svg PUBLIC "-//W3C//DTD SVG 1.1//EN" "http://www.w3.org/Graphics/SVG/1.1/DTD/svg11.dtd">
<!-- Creator: CorelDRAW 2026 -->
<svg xmlns="http://www.w3.org/2000/svg" xml:space="preserve" width="2.58114in" height="0.403169in" version="1.1" style="shape-rendering:geometricPrecision; text-rendering:geometricPrecision; image-rendering:optimizeQuality; fill-rule:evenodd; clip-rule:evenodd"
viewBox="0 0 989.83 154.61"
 xmlns:xlink="http://www.w3.org/1999/xlink"
 xmlns:xodm="http://www.corel.com/coreldraw/odm/2003">
 <defs>
  <style type="text/css">
   <![CDATA[
    .fil0 {fill:black}
    .fil1 {fill:#FFF500}
   ]]>
  </style>
 </defs>
 <g id="Layer_x0020_1">
  <metadata id="CorelCorpID_0Corel-Layer"/>
  <polygon class="fil0" points="30.76,68.84 0,51.59 0,72.63 0,85.13 30.76,101.86 59.81,85.13 37.53,72.63 "/>
  <polygon class="fil1" points="88.48,33.82 88.48,0 32.07,30.6 26.14,33.82 -0,48 0.01,48 32.07,65.08 32.11,65.08 62.92,48 "/>
  <polygon class="fil0" points="88.94,84.37 120.11,100.85 119.59,79.81 119.28,67.32 88.12,51.35 59.49,68.8 82.07,80.74 "/>
  <polygon class="fil1" points="32.1,120.8 32.93,154.61 88.57,122.62 94.43,119.26 120.2,104.44 120.2,104.44 87.72,88.15 87.68,88.15 57.3,105.99 "/>
  <g id="_2440711073408">
   <path class="fil0" d="M771.35 106.29c-0.66,0.45 -1.02,0.92 -2.15,0.92l-67.2 0c-3.51,0 -2.59,-1.32 -5.22,-1.53 -0.05,-2.12 -0.4,-1.33 -1.23,-2.45l-0.63 -13.48c-0.11,-1.62 -0.59,-2.37 -0.59,-4.31l0 -5.22c0,-0.85 0.27,-0.47 0.69,-1.45 0.85,-1.98 -0.06,-1.75 1.05,-3.56 1.72,-2.8 0.78,-1.44 2.37,-2.23 1.03,-0.51 0.5,-0.68 1.49,-0.96 2.23,-0.65 53.32,0.48 54.89,-0.34 2.56,-1.33 2.1,-3.02 2.1,-5.57 0,-2.22 -3.01,-3.68 -4.91,-3.68l-52.78 0c-2.36,0 -2.9,0.75 -4.64,1.19 -1.65,0.42 -1.02,0.3 -2.49,1.2 -0.42,0.26 -0.11,0.01 -0.57,0.35l-2.29 2.01c-1.52,1.44 -2.11,4.23 -2.57,5.1 -0.26,0.49 -0.3,0.31 -0.6,0.94 -0.64,1.35 -0.14,3.29 -0.73,5.1 -0.92,2.84 -0.46,8.09 -0.02,11.21 0.79,5.7 -0.06,14.64 0.66,17.45l2.08 4.36c1.01,1.42 1.28,2.03 3.11,3.02l1.52 0.93c4.93,2.49 8.62,1.21 13.41,1.93 2.48,0.38 64.41,0.13 71.98,0.13 1.69,0 3.07,-0.41 3.07,-2.15l0 -71.19c0,-2.33 -0.87,-3.23 -1.15,-4.68 -0.21,-1.08 0.07,-1.75 -0.25,-2.81 -0.46,-1.52 -0.55,-0.42 -1.03,-2.04 -0.36,-1.21 -0.09,-1.19 -0.81,-2.26l-1.24 -1.83c-1.75,-2.31 -1.42,-2.34 -4.35,-4.55l-1.32 -0.83c-0.55,-0.37 -0.02,-0.07 -0.51,-0.4l-4.35 -1.79c-4.34,-0.54 -0.94,-1.51 -10.76,-1.51 -7.98,0 -15.74,-0.61 -23.63,-0.61l-41.11 -0.31c-1,0 -2.92,1.05 -3.32,1.9 -0.6,1.28 -1.1,4.57 0.65,6.29 0.05,0.04 0.11,0.1 0.16,0.15l0.46 0.46c1.59,1.52 2.89,1.55 5.13,1.35 1.72,-0.16 3.76,-0.08 5.33,0.16l10.92 0.12c2.14,-0.01 2.98,0.33 5.2,0.32l46.34 -0.01c1.59,0.18 0.7,0.31 1.9,0.87 2.28,1.06 2.1,0.21 4.78,3.5 2.61,3.2 1.27,2.44 2.78,5.51 0.5,1.02 0.39,0.93 0.37,2.39l0.3 7.99c0,3.17 0.29,8.03 -0.04,11 -0.65,5.79 -0.26,35.59 -0.26,43.92z"/>
   <path class="fil0" d="M588.48 35.42c0,-2.67 -0.22,-3.28 0.31,-5.52 0.69,-0.16 0.71,-0.31 1.53,-0.31 7.42,0 66.08,-0.47 68.57,0.47l1.94 1.13c1.28,0.8 0.39,1.04 1.91,1.16 0,1.03 0.18,1.99 0.43,2.94 0.3,1.12 0.79,1.57 0.79,2.58l0 16.57c0,1.5 -0.4,0.45 -0.96,3.03 -0.3,1.37 -0.55,1.54 -1.62,2.37 -5,3.88 -10.76,-1.06 -14.23,3.56 -1.33,1.77 -1.49,4.55 0.05,6.26 0.04,0.05 0.11,0.11 0.15,0.16 0.33,0.38 0.4,0.5 0.66,0.88 3.7,0 4.29,-0.39 6.75,0.61 2.09,0.85 4.33,-0.26 6.05,1.32l3.11 6.09c0.09,0.5 0.07,1.13 0.14,1.7 0.41,3.33 0.33,17.11 -0.03,20.71 -0.21,2.1 0.03,1.76 -0.96,3.02 -1.2,1.52 -3.05,3.05 -5.23,3.05l-67.81 0c-1.16,0 -1.23,-1.86 -1.23,-3.07l0.13 -40.63c-0.93,-6.19 -0.14,-12.04 -0.13,-18.28 0,-2.04 -0.27,-2.93 -0.32,-4.59 -0.05,-1.7 0.01,-3.51 0.01,-5.23zm-10.13 53.7c0,3.24 -0.26,22.34 0.43,24.73 0.32,1.14 1.98,2.88 4.17,2.88 8.68,0 77.69,0.37 80.13,-0.26 0.64,-0.16 -0.1,0.08 0.48,-0.14l0.61 -0.3c0.06,-0.03 0.13,-0.09 0.19,-0.12l2.54 -1.14c2.72,-1.6 2.86,-2.21 4.38,-4.21 2.27,-2.96 0.47,-2.07 1.65,-4.18 1.09,-1.96 0.87,-1.58 0.83,-4.69 -0.04,-3.93 0.92,-12.34 0.92,-16.57 0,-1.88 -0.64,-3.56 -0.85,-4.98 -0.33,-2.21 0.41,-3.46 -0.58,-5.25 -1.64,-2.95 0.12,-1.48 -1.58,-4.25 -1.34,-2.19 -2.54,-4.04 -1.43,-5.91 0.76,-1.28 1.74,-1.84 2.28,-4.47 0.46,-2.22 1.08,-1.12 1.23,-3.37 0.42,-6.14 0.14,-7.9 0.3,-13.2 0.05,-1.62 0.33,-2.33 0.33,-4.29 -0,-2.09 -0.22,-2.37 -0.51,-4.1 -0.22,-1.35 0.06,-2.87 -0.23,-4.07 -0.3,-1.29 -0.33,-0.73 -0.72,-1.43 -0.84,-1.51 -0.16,-2.55 -4.25,-6.19 -1.41,-1.25 1.16,0.92 -0.33,-0.29l-0.9 -0.64c-3.33,-2.45 -1.14,-0.32 -3.74,-1.79 -0.8,-0.45 -0.36,-0.47 -1.73,-0.72 -1.35,-0.25 -2.88,-0.06 -4.32,-0.28 -2.33,-0.35 -62.88,-0.13 -70.44,-0.13 -1.75,0 -2.74,0.15 -4.29,0.32 -2.18,0.23 -3.09,1.32 -4,3.37 -0.77,1.73 -0.31,24.44 -0.31,26.69 0,3.55 -0.32,6.27 -0.31,9.51l0 29.46z"/>
   <path class="fil0" d="M296.06 22.83l0 52.47c0,5.1 0.31,9.1 0.31,14.11 0,19.23 1.18,15.62 -4.43,16.44 -1.98,0.29 -1.66,-0.21 -3.23,-0.17 -2.77,0.07 -9.39,0.93 -12.5,-0.42 -1.11,-0.48 -0.33,-0.3 -1.63,-0.52 -2.2,-0.38 -1.49,-0.15 -3.1,-1.19l-2.59 -2.01c-0.3,-0.3 -0.12,-0.14 -0.45,-0.47 -0.78,-0.76 -2.13,-3.3 -2.25,-3.59 -0.91,-2.23 -0.51,-52.23 -0.51,-57.78 0,-6.73 0.61,-9.32 0.04,-15.99 -0.2,-2.33 0.17,-1 -0.78,-2.6 -0.73,-1.23 -1.18,-2.58 -4.17,-2.58 -0.9,0 -2.47,0.3 -3.04,0.64 -0.98,0.59 -1.33,1.68 -2.03,2.88 -0.04,0.07 -0.31,0.57 -0.32,0.6 -0.32,0.97 -0.13,15.07 -0.14,17.36 -0.01,1.78 0.24,2.25 0.32,3.67 0.35,6.39 -0,23.4 -0,30.99 0,5.11 0.03,10.23 -0,15.34 -0.03,4.68 0.63,2.38 0.61,7.06 -0.01,1.23 0.11,2.54 0.46,3.53 0.98,2.79 2.07,5.49 3.93,7.72 1.71,2.05 4.66,4 6.65,4.7 1.49,0.53 0.75,0.78 2.85,1.14 3.29,0.56 2.29,1.31 6.67,1.31l51.85 0c1.81,0 3,-0.32 4.38,-0.84 2.44,-0.91 1.14,0.25 4.19,-1.33 0.06,-0.03 0.14,-0.08 0.2,-0.11 0.06,-0.03 0.15,-0.06 0.21,-0.09 2.01,-0.81 4.9,-2.2 6.36,-4.07 1.94,-2.47 1.5,-0.94 2.41,-2.81l0.54 -0.99c0.04,-0.05 0.1,-0.11 0.14,-0.16 0.11,-0.15 0.15,-0.07 0.42,-0.51l0.56 -1.59c0.82,-2.05 0.65,0.3 1.15,-3.45 0.22,-1.6 -0.05,-0.32 0.35,-1.18 0.66,-1.41 0.86,-2.49 0.86,-4.67l0 -70.88c0,-0.79 -1.63,-2.4 -2.54,-2.98 -1.73,-1.12 -3.56,-1.26 -5.42,-0.06 -2.45,1.58 -1.86,2.4 -1.86,7.35 0,8.09 0.29,30.31 -0.53,36.29 -0.5,3.62 -0.08,10.66 -0.08,14.64l-0.43 17.98c-0.09,0.66 -0.1,0.94 -0.17,1.67 -0.17,1.89 -1.66,3.37 -3.03,4.64 -2.49,2.3 -9.22,3.64 -12.63,3.64l-15.96 0c-1.45,0 -0.92,-2.38 -0.92,-4.91l0 -75.79c0,-2.45 0.37,-4.08 -0.49,-5.34 -1.9,-2.78 -3.83,-2.33 -6.56,-2.33 -0.74,0 -0.76,0.33 -1.35,0.8 -1.53,1.21 -0.89,1.04 -1.69,2.61 -0.36,0.71 -0.65,0.72 -0.65,1.8z"/>
   <path class="fil0" d="M150.32 27.44l0 33.75c0,1.5 0.55,1.12 0.99,2.08 0.42,0.93 -0.19,1.6 2,4.13 1.71,1.97 1.3,1.48 2.83,2.08 1.13,0.44 0.04,-0.11 0.95,0.59l0.96 0.57c2.56,0.64 60.97,-0.44 71.45,0.04 1.44,0.07 3.74,1.42 4.39,2.05 1.2,1.17 1.12,3.39 1.12,5.33 0,4.16 0.21,20.4 -0.2,23.42 -0.17,1.27 0.26,1.87 -2.38,3.76 -2.17,1.54 -10.68,0.74 -14.6,0.74 -6.58,0 -64.48,-0.43 -67.48,0.34l-1.93 1.14c-1.2,1.17 -1.95,8.04 1.9,8.04l81 0c1.28,0 1.89,-0.09 3,-0.37l2.46 -0.91c2.69,-0.85 3.99,-2.85 5.37,-4.76 1.52,-2.09 -0.06,-1.09 1.49,-3.42 0.94,-1.42 0.58,-2.61 0.56,-4.96 -0.03,-4.17 0.93,-14.13 0.93,-19.31 0.02,-12.53 -0.49,-6.65 -0.91,-10.46 -0.28,-2.54 -0.21,-1.25 -1.06,-2.93 -1.18,-2.33 -1.57,-2.49 -4.11,-4.17 -0.77,-0.51 -0.48,-0.33 -1.33,-0.51 -3.11,-0.68 -0.82,-1.3 -4.86,-1.28 -1.31,0.01 -2.72,0.06 -4.01,0.02l-64.42 -0.01c-0.83,0 -0.74,-0.43 -1.37,-0.78 -1.11,-0.62 -1.05,-0.18 -1.7,-0.76 -0.14,-0.13 -1.54,-2.36 -1.54,-3.37l0 -25.77c0,-1.27 0.69,-1.83 1.96,-2.64 1.39,-0.89 15.79,-0.43 17.98,-0.43 6.14,0 60.42,0.48 63.13,-0.39 0.97,-0.31 2.53,-2.83 2.53,-3.3 0,-2.86 0.3,-2.61 -0.95,-3.96 -0.89,-0.97 -0.22,-0.35 -1.43,-1.02 -0.06,-0.03 -0.14,-0.07 -0.2,-0.11 -1.71,-0.97 -0.89,-0.77 -4.17,-0.74 -2.07,0.02 -2.91,-0.27 -4.59,-0.32 -1.7,-0.05 -3.51,0.01 -5.23,0.01 -7.58,0 -68.27,-0.33 -70.35,0.22l-4.07 1.76c-3.08,2.55 -2.7,3.78 -3.26,5.02 -0.4,0.88 -0.87,0.75 -0.87,1.59z"/>
   <path class="fil0" d="M895.61 41.55l0 51.86c0,1.81 0.27,2.49 0.69,3.91 0.8,2.7 -0.06,3.46 1.21,5.84 0.46,0.86 1.2,3.8 2.8,5.79 0.04,0.05 0.1,0.12 0.14,0.17 0.06,0.07 0.21,0.28 0.26,0.35 0.5,0.68 0.57,0.79 1.06,1.39l0.7 0.83c1.1,1.23 3.16,2.72 4.5,3.48l1.64 0.82c5.32,2.77 13.07,1.97 19.51,1.97l11.6 0.06c0.59,0.11 1.45,0.6 1.75,0.67l4.15 0.18c1.22,0 2.69,-0.62 3.98,-0.93 1.2,-0.29 0.83,-0.15 1.6,-0.86 1.56,-1.43 1.17,-0.72 1.17,-4.65 0,-0.74 -0.51,-1.01 -1.03,-1.42 -0.48,-0.38 -1.16,-0.92 -1.64,-1.12 -0.65,-0.26 -1.26,-0.29 -1.93,-0.53 -3.36,-1.19 -1.28,-0.22 -5.53,-0.59 -1.2,-0.1 -2.74,-0.02 -3.98,-0.02l-15.91 -0.05c-5.36,-0.59 -2.83,-0.38 -7.37,-1.53 -0.86,-0.22 -2.94,-1.34 -4.08,-2.36l-0.84 -0.69c0,-0 -0.46,-0.4 -0.49,-0.43l-1.66 -2.33c-0.86,-2.05 -1.5,-2.97 -1.56,-4.58 -0.06,-1.68 -0.18,-2.41 -0.29,-3.7 -0.19,-2.34 -0.02,-5.53 -0.02,-7.96 0,-2.96 -0.33,-5.04 -0.31,-7.67 0.02,-2.89 -0.09,-5.25 -0.29,-7.69 -0.41,-4.92 0.48,-11.09 -0.06,-15.9l-0.27 -11.72c0.05,-2.05 0.28,-1.97 0.77,-3.22 0.81,-2.08 0.02,-2.46 1.59,-4.24 1.43,-1.62 1.84,-1.96 3.66,-2.48 1.27,-0.36 2.15,-1.09 3.2,-1.09l58.91 0c0.75,0 1.61,0.6 3.38,1.22 1.2,0.42 1.43,0.91 2.41,2.5 1.36,2.23 0.96,5.12 0.96,8.55 0,4.86 -0.23,46.53 0.11,48.06 0.34,1.5 3.49,6.47 7.92,3.24 1.69,-1.24 1.89,-3.7 1.78,-5.86 -0.06,-1.23 -0.3,-1.97 -0.3,-3.71 0,-1.34 0.21,-0.51 0.09,-1.92 -0.38,-4.34 -0.09,-32.4 -0.09,-37.05 0,-3.27 -0.02,-6.55 0.01,-9.83 0.01,-0.76 0.07,-1.62 -0.14,-2.32 -0.32,-1.05 -0.47,-0.59 -0.87,-1.58 -0.37,-0.91 -0.11,-1.03 -0.55,-1.91 -0.78,-1.56 -1.89,-2.91 -3.17,-4.19 -1.71,-1.71 -3.65,-3.1 -6.08,-3.74 -1.54,-0.4 -2.35,-0.98 -4.24,-0.98l-57.99 0c-1.67,0 -7.72,1.17 -8.59,1.53 -0.59,0.24 -0.91,0.51 -1.68,0.78 -2.32,0.81 -2.71,1.11 -4.76,2.91 -2.45,2.15 -2.84,3.79 -4.04,6.08l-1.79 8.65z"/>
   <path class="fil0" d="M792.21 64.56c0,7.54 -0.37,36.36 0.27,41.78 0.3,2.51 -0.58,1.78 0.05,6.08 0.18,1.21 1.55,4.31 3.06,4.31 4.54,0 3.41,0.41 5.11,-1.33 2.32,-2.37 1.95,-4.28 1.94,-7.26 -0.01,-22.4 0.5,-44.7 0.3,-67.21 -0.02,-2.27 0.55,-3.18 1.38,-5.06l0.48 -0.75c0.05,-0.07 0.22,-0.27 0.28,-0.34l2 -1.99 4.47 -1.67 52.47 0c1.29,0 1.36,0.51 2.2,0.87 1.03,0.44 1.55,0.2 2.5,0.57l4.9 4.61c0.27,0.61 0.14,0.56 0.37,1.16 0.42,1.1 0.24,0.42 0.66,1.18 0.77,1.39 0.42,4.08 0.42,6.02l0 63.52c0,3.57 -0.44,4.22 1.31,6.66 0.58,0.8 -0.03,0.24 0.74,0.8 2.14,1.55 4.18,1.41 6.09,-0.24 1,-0.86 1.67,-1.49 1.67,-2.62l0 -73.95c0,-3.04 -0.87,-2.54 -1.35,-4.18 -0.58,-1.98 0.5,-0.78 -1.19,-2.8l-1.17 -1.59c-0.37,-0.6 -0.16,-0.43 -0.5,-1.04 -0.44,-0.8 -2.87,-2.71 -3.75,-3.31l-1.44 -1.01c-2.69,-1.97 -3.37,-1.27 -4.95,-2.41 -1.15,-0.84 -0.38,-0.47 -2.21,-0.55 -2.41,-0.11 -2.42,-1.03 -4.32,-1.2 -2,-0.18 -3.35,-0.32 -5.51,-0.32 -8.99,0 -41.05,-0.42 -47.59,0.27 -2.41,0.26 -1.4,0.42 -3.02,0.97 -1.14,0.38 -2.5,0.1 -3.43,0.56 -0.58,0.28 -0.25,0.4 -1.33,0.82 -1.96,0.77 -3.23,1.62 -4.97,3.31l-0.71 0.82c-0.04,0.05 -0.09,0.13 -0.13,0.18 -0.04,0.05 -0.08,0.13 -0.12,0.19 -0.7,0.99 -1.89,2.37 -2.47,3.67 -0.32,0.71 -0.22,1.03 -0.45,1.7 -0.22,0.62 -0.01,0.09 -0.3,0.62 -0,0.01 -0.26,0.39 -0.35,0.57 -0.86,1.75 -0.23,3.96 -0.56,5.57 -0.3,1.47 -0.56,0.42 -0.54,3.45 0.01,1.43 0.01,2.87 0.01,4.3 0,3.1 -0.32,5.05 -0.31,7.98 0.01,2.76 0,5.52 0,8.29z"/>
   <path class="fil0" d="M376.45 24.06l0 84.99c0,2.86 1.22,6.75 4.3,6.75 3.23,0 5.52,-0.92 5.52,-4.91l0 -33.75 22.4 0c3.43,0 7.67,-5.14 3.93,-8.84 -3.14,-3.09 -8.57,-1.9 -14.36,-1.9 -3.58,0 -7.16,0 -10.74,0 -0.28,-0.58 -0.51,-1.46 -0.53,-2.15 -0.29,-9.62 -0.09,-22.2 -0.09,-32.22 0,-1.32 0.36,-1.66 0.61,-2.76l9.51 -0.31c5.11,0 10.23,0 15.34,0 5.47,0 9.87,0.31 15.34,0.31 3.52,0 15.95,-0.97 18.26,1.07 0.96,0.84 1.05,1.45 1.08,2.91 0.04,2.45 0.4,4.92 0.64,7.34 0.28,2.88 -0.02,4.23 1.93,5.74 0.83,0.64 1.47,1.26 2.66,1.31 3.72,0.16 5.32,-2.49 5.52,-6.1 0.09,-1.72 -0.19,-2.42 -0.3,-3.7 -0.11,-1.4 0.03,-2.4 -0.18,-3.81 -0.31,-2.02 -0.58,-4.92 -1.07,-6.59 -0.32,-1.08 -0.13,-0.39 -0.62,-1.23l-0.73 -1.41c-0.26,-0.43 -0.5,-0.71 -0.76,-1.08l-1.91 -2.08c-3.07,-2.49 -6.84,-2.81 -11,-2.81 -7.44,0 -56.52,-0.26 -59.67,0.17 -2.42,0.33 -2.35,-0.31 -4.26,2.49 -0.58,0.85 -0.82,1.21 -0.82,2.55z"/>
   <path class="fil0" d="M458.38 21.91c0,3.73 -0.55,4.89 1.36,6.62 1.75,1.58 6.09,1.36 9.08,1.36l24.24 0c1.51,0 2.12,-0.38 3.55,-0.18l4.43 0.18 0 80.39c0,1.03 0.34,1.09 0.56,2.2 0.42,2.06 0.33,2.2 2.53,2.99 1.99,0.72 1,0.64 3.35,0.64 0.24,0 3.22,-0.89 3.85,-1.98 2.49,-4.35 0.66,-5.47 1.32,-11.25l0.05 -72.98c3.89,0 7.77,0 11.66,0 4.19,0 7.24,-0.31 11.35,-0.31 2.52,0 15.27,0.49 16.96,-0.53 0.64,-0.39 1.36,-0.82 1.73,-1.33 0.71,-0.97 1.37,-5.55 -0.66,-7.27 -0.87,-0.74 -1.8,-1.3 -3.3,-1.3l-88.37 0c-1.23,0 -3.68,1.7 -3.68,2.76z"/>
   <path class="fil0" d="M355.9 25.29l0 82.85c0,1.36 0.21,4.11 0.61,4.92 1.45,2.93 6.49,3.21 8.7,1.63 1.91,-1.36 1.47,-1.01 1.87,-3.96 0.45,-3.28 0.17,-71.76 0.17,-81.14 0,-1.88 -0.33,-1.71 -0.13,-3.5 0.08,-0.72 -0.07,-2.82 -0.17,-3.86 -0.39,-3.82 -6.74,-3.93 -8.32,-2.79l-1.57 1.8c-0.95,1.2 -0.51,0.28 -0.84,1.3 -0.24,0.74 -0.32,1.77 -0.32,2.75z"/>
   <path class="fil0" d="M981.83 125.62c1.93,0 5.81,-2.84 4.36,-6.17 -2.28,-5.24 0.04,-0.57 -2.68,-4.7 -0.72,-1.1 -1.12,-1.68 -1.86,-2.74l-4.98 -7.29c-0.39,-0.65 -0.63,-0.89 -1.01,-1.44l-8.89 -12.59c-1.16,-1.18 -3.66,-5.53 -4.83,-6.83 -2.26,-2.5 -5.86,-3.27 -7.99,-0.24 -0.72,1.02 -1.09,2.11 -0.75,3.75 0.34,1.65 0.06,0.57 0.63,1.54 1.78,3.08 0.43,1.02 2.68,3.77 0.04,0.05 0.1,0.12 0.14,0.17l1.19 1.58c0.45,0.58 0.59,0.9 0.97,1.48l6.65 9.91c0.42,0.59 0.61,0.92 1.01,1.44l12.08 16.77c0.84,0.79 2.15,1.6 3.31,1.6z"/>
  </g>
 </g>
</svg>
